<svg width="24" height="24" viewBox="0 0 24 24" fill="none" xmlns="http://www.w3.org/2000/svg">
<path fill-rule="evenodd" clip-rule="evenodd" d="M12 5.75C10.7574 5.75 9.75 6.75736 9.75 8C9.75 9.24264 10.7574 10.25 12 10.25C13.2426 10.25 14.25 9.24264 14.25 8C14.25 6.75736 13.2426 5.75 12 5.75ZM8.25 8C8.25 5.92893 9.92893 4.25 12 4.25C14.0711 4.25 15.75 5.92893 15.75 8C15.75 10.0711 14.0711 11.75 12 11.75C9.92893 11.75 8.25 10.0711 8.25 8Z" fill="white"/>
<path fill-rule="evenodd" clip-rule="evenodd" d="M6.75832 17.1052C6.77834 17.1325 6.82293 17.182 6.91719 17.2516C7.12717 17.4068 7.47895 17.5781 7.98107 17.735C8.97637 18.046 10.3974 18.25 12 18.25C13.6026 18.25 15.0236 18.046 16.0189 17.735C16.5211 17.5781 16.8728 17.4068 17.0828 17.2516C17.1771 17.182 17.2217 17.1325 17.2417 17.1052C17.2228 17.0541 17.1621 16.9165 16.968 16.6982C16.7252 16.4251 16.3492 16.1129 15.8566 15.8172C14.8719 15.2261 13.5038 14.75 12 14.75C10.4962 14.75 9.12809 15.2261 8.14338 15.8172C7.65078 16.1129 7.27478 16.4251 7.03202 16.6982C6.8379 16.9165 6.77715 17.0542 6.75832 17.1052ZM17.2566 17.0806C17.2567 17.0806 17.2563 17.0817 17.2552 17.0839C17.256 17.0817 17.2565 17.0806 17.2566 17.0806ZM6.74479 17.0839C6.74371 17.0817 6.74334 17.0806 6.74343 17.0806C6.74351 17.0806 6.74405 17.0817 6.74479 17.0839ZM7.37134 14.5311C8.5582 13.8187 10.1901 13.25 12 13.25C13.8099 13.25 15.4418 13.8187 16.6287 14.5311C17.2218 14.8872 17.7245 15.2916 18.089 15.7015C18.4258 16.0804 18.75 16.5824 18.75 17.125C18.75 17.7336 18.3567 18.1754 17.9742 18.4581C17.5769 18.7516 17.05 18.9843 16.4663 19.1667C15.2901 19.5343 13.7111 19.75 12 19.75C10.2889 19.75 8.70992 19.5343 7.53365 19.1667C6.94999 18.9843 6.42309 18.7516 6.02583 18.4581C5.64326 18.1754 5.25 17.7336 5.25 17.125C5.25 16.5824 5.57419 16.0804 5.911 15.7015C6.27547 15.2916 6.77816 14.8872 7.37134 14.5311Z" fill="white"/>
<path fill-rule="evenodd" clip-rule="evenodd" d="M16.5142 10.1522C16.2943 10.6126 16.0061 11.0341 15.6626 11.4036C16.0584 11.6243 16.5144 11.75 16.9998 11.75C18.5186 11.75 19.7498 10.5188 19.7498 9C19.7498 7.48122 18.5186 6.25 16.9998 6.25C16.8955 6.25 16.7926 6.2558 16.6914 6.26711C16.8634 6.73272 16.9681 7.23096 16.9937 7.75001C16.9957 7.75 16.9978 7.75 16.9998 7.75C17.6902 7.75 18.2498 8.30964 18.2498 9C18.2498 9.69036 17.6902 10.25 16.9998 10.25C16.8276 10.25 16.6635 10.2152 16.5142 10.1522Z" fill="white"/>
<path fill-rule="evenodd" clip-rule="evenodd" d="M7.30845 6.26711C7.20719 6.2558 7.10427 6.25 7 6.25C5.48122 6.25 4.25 7.48122 4.25 9C4.25 10.5188 5.48122 11.75 7 11.75C7.48537 11.75 7.94138 11.6243 8.33721 11.4036C7.99374 11.0341 7.70549 10.6126 7.4856 10.1522C7.33631 10.2152 7.17222 10.25 7 10.25C6.30964 10.25 5.75 9.69036 5.75 9C5.75 8.30964 6.30964 7.75 7 7.75C7.00205 7.75 7.00409 7.75 7.00614 7.75001C7.0317 7.23096 7.13641 6.73272 7.30845 6.26711Z" fill="white"/>
<path fill-rule="evenodd" clip-rule="evenodd" d="M7.55746 13.2703C7.37419 13.257 7.18823 13.25 7 13.25C5.47279 13.25 4.09491 13.7104 3.08998 14.2895C2.58802 14.5788 2.15793 14.9098 1.84265 15.2503C1.5583 15.5573 1.25 15.998 1.25 16.5C1.25 17.0707 1.6323 17.4639 1.95903 17.6956C2.30523 17.9412 2.75755 18.1316 3.24896 18.279C3.56363 18.3734 3.91185 18.4553 4.28637 18.5231C4.09971 18.2372 4 17.936 4 17.625C4 17.4229 4.04212 17.1984 4.12286 16.9589C3.96574 16.9226 3.81779 16.8836 3.67998 16.8423C3.26656 16.7183 2.98665 16.5855 2.82682 16.4721C2.81608 16.4645 2.80635 16.4573 2.79755 16.4506C2.82636 16.407 2.87181 16.3466 2.9432 16.2695C3.13395 16.0635 3.43609 15.8213 3.83895 15.5892C4.28639 15.3313 4.83196 15.1008 5.44036 14.9469C6.01089 14.3445 6.72961 13.7588 7.55746 13.2703ZM2.72528 16.3857C2.72188 16.3816 2.72064 16.3795 2.72087 16.3794C2.7211 16.3794 2.72281 16.3815 2.72528 16.3857Z" fill="white"/>
<path fill-rule="evenodd" clip-rule="evenodd" d="M19.7135 18.5231C19.9001 18.2372 19.9998 17.936 19.9998 17.625C19.9998 17.4229 19.9577 17.1984 19.877 16.9589C20.0341 16.9226 20.1821 16.8836 20.3199 16.8423C20.7333 16.7183 21.0132 16.5855 21.173 16.4721C21.1838 16.4645 21.1935 16.4573 21.2023 16.4506C21.1735 16.407 21.128 16.3466 21.0566 16.2695C20.8659 16.0635 20.5638 15.8213 20.1609 15.5892C19.7135 15.3313 19.1679 15.1008 18.5595 14.9469C17.989 14.3445 17.2702 13.7588 16.4424 13.2703C16.6257 13.257 16.8116 13.25 16.9998 13.25C18.527 13.25 19.9049 13.7104 20.9099 14.2895C21.4118 14.5788 21.8419 14.9098 22.1572 15.2503C22.4415 15.5573 22.7498 15.998 22.7498 16.5C22.7498 17.0707 22.3675 17.4639 22.0408 17.6956C21.6946 17.9412 21.2423 18.1316 20.7509 18.279C20.4362 18.3734 20.088 18.4553 19.7135 18.5231ZM21.279 16.3794C21.2792 16.3795 21.278 16.3816 21.2746 16.3857C21.277 16.3815 21.2787 16.3794 21.279 16.3794Z" fill="white"/>
</svg>
