<svg width="16" height="16" viewBox="0 0 16 16" fill="none" xmlns="http://www.w3.org/2000/svg">
<g clip-path="url(#clip0_477_5269)">
<path d="M14.167 16H1.83372C0.82238 16 0.000488281 15.1779 0.000488281 14.1667V4.50007C0.000488281 3.48873 0.82238 2.66684 1.83372 2.66684H4.16707C4.44307 2.66684 4.66707 2.89084 4.66707 3.16683C4.66707 3.44283 4.44307 3.66683 4.16707 3.66683H1.83372C1.37438 3.66683 1.00048 4.04073 1.00048 4.50007V14.1667C1.00048 14.626 1.37438 15 1.83372 15H14.167C14.6263 15 15.0003 14.626 15.0003 14.1667V8.50003C15.0003 8.22404 15.2243 8.00004 15.5003 8.00004C15.7763 8.00004 16.0003 8.22404 16.0003 8.50003V14.1667C16.0003 15.1779 15.1783 16 14.167 16Z" fill="#00BEE3"/>
<path d="M4.49975 10.6581C4.46313 10.6581 4.42639 10.6541 4.38977 10.6447C4.16382 10.5921 4.00049 10.3987 4.00049 10.1668V9.16678C4.00049 5.58283 6.91648 2.66684 10.5004 2.66684H10.667V0.500118C10.667 0.29614 10.7911 0.112793 10.9804 0.0361333C11.169 -0.0397937 11.3857 0.00610426 11.527 0.153442L15.8604 4.6534C16.047 4.84675 16.047 5.15339 15.8604 5.34675L11.527 9.8467C11.3857 9.99404 11.1677 10.0395 10.9804 9.96401C10.7911 9.88735 10.667 9.70401 10.667 9.50003V7.33342H9.87506C7.77779 7.33342 5.89305 8.4987 4.9558 10.374C4.86974 10.5474 4.68908 10.6581 4.49975 10.6581ZM10.5004 3.66683C7.7004 3.66683 5.38182 5.77009 5.04247 8.48002C6.25437 7.1281 7.99239 6.33343 9.87506 6.33343H11.167C11.443 6.33343 11.667 6.55743 11.667 6.83343V8.26005L14.8063 5.00007L11.667 1.7401V3.16684C11.667 3.44284 11.443 3.66683 11.167 3.66683H10.5004Z" fill="#00BEE3"/>
</g>
<defs>
<clipPath id="clip0_477_5269">
<rect width="16" height="16" fill="white"/>
</clipPath>
</defs>
</svg>
