<svg width="13" height="14" viewBox="0 0 13 14" fill="none" xmlns="http://www.w3.org/2000/svg">
<path d="M3.89453 1.00021V2.71773" stroke="#0C78C8" stroke-width="0.8" stroke-miterlimit="10" stroke-linecap="round" stroke-linejoin="round"/>
<path d="M8.52539 1.00021V2.71773" stroke="#0C78C8" stroke-width="0.8" stroke-miterlimit="10" stroke-linecap="round" stroke-linejoin="round"/>
<path d="M1.28906 5.06H11.1312" stroke="#0C78C8" stroke-width="0.8" stroke-miterlimit="10" stroke-linecap="round" stroke-linejoin="round"/>
<path d="M11.9988 10.7338C11.9988 11.1632 11.8772 11.5697 11.663 11.9132C11.4589 12.2524 11.169 12.5332 10.8218 12.728C10.4746 12.9227 10.0821 13.0247 9.68298 13.0239C9.09824 13.0239 8.56561 12.812 8.16035 12.4514C7.98088 12.3025 7.82456 12.1193 7.70298 11.9132C7.4826 11.5585 7.36634 11.1502 7.36719 10.7338C7.36719 9.4686 8.40351 8.44382 9.68298 8.44382C10.3777 8.44382 10.9972 8.74725 11.4198 9.22243C11.7921 9.63991 11.998 10.1772 11.9988 10.7338Z" stroke="#0C78C8" stroke-width="0.8" stroke-miterlimit="10" stroke-linecap="round" stroke-linejoin="round"/>
<path d="M8.78125 10.7335L9.35441 11.3003L10.5876 10.1724" stroke="#0C78C8" stroke-width="0.5" stroke-linecap="round" stroke-linejoin="round"/>
<path d="M11.421 4.72221V9.22211C10.9984 8.74693 10.3789 8.4435 9.68421 8.4435C8.40473 8.4435 7.36842 9.46829 7.36842 10.7335C7.36842 11.1629 7.49 11.5694 7.70421 11.9129C7.82579 12.119 7.9821 12.3022 8.16158 12.451H3.89474C1.86842 12.451 1 11.306 1 9.58852V4.72221C1 3.00469 1.86842 1.85968 3.89474 1.85968H8.52631C10.5526 1.85968 11.421 3.00469 11.421 4.72221Z" stroke="#0C78C8" stroke-width="0.8" stroke-miterlimit="10" stroke-linecap="round" stroke-linejoin="round"/>
<path d="M6.20703 7.6983H6.21282" stroke="#0C78C8" stroke-width="1.4" stroke-linecap="round" stroke-linejoin="round"/>
<path d="M4.06445 7.6983H4.07024" stroke="#0C78C8" stroke-width="1.4" stroke-linecap="round" stroke-linejoin="round"/>
<path d="M4.06445 9.41531H4.07024" stroke="#0C78C8" stroke-width="1.4" stroke-linecap="round" stroke-linejoin="round"/>
</svg>
