<svg width="16" height="16" viewBox="0 0 16 16" fill="none" xmlns="http://www.w3.org/2000/svg">
<path fill-rule="evenodd" clip-rule="evenodd" d="M5.5 4C5.5 2.61929 6.61929 1.5 8 1.5H12C13.3807 1.5 14.5 2.61929 14.5 4V9.33333C14.5 10.714 13.3807 11.8333 12 11.8333H8C6.61929 11.8333 5.5 10.714 5.5 9.33333V4ZM8 2.5C7.17157 2.5 6.5 3.17157 6.5 4V9.33333C6.5 10.1618 7.17157 10.8333 8 10.8333H12C12.8284 10.8333 13.5 10.1618 13.5 9.33333V4C13.5 3.17157 12.8284 2.5 12 2.5H8Z" fill="#374151"/>
<path fill-rule="evenodd" clip-rule="evenodd" d="M4.66667 4.16699H4C2.61929 4.16699 1.5 5.28628 1.5 6.66699V12.0003C1.5 13.381 2.61929 14.5003 4 14.5003H8C9.14984 14.5003 10.1184 13.7241 10.4101 12.667H9.34408C9.09863 13.1609 8.58895 13.5003 8 13.5003H4C3.17157 13.5003 2.5 12.8288 2.5 12.0003V6.66699C2.5 5.83857 3.17157 5.16699 4 5.16699H4.66667V4.16699Z" fill="#374151"/>
</svg>
