<svg width="34" height="36" viewBox="0 0 34 36" fill="none" xmlns="http://www.w3.org/2000/svg">
<path fill-rule="evenodd" clip-rule="evenodd" d="M6.41696 9.66683C6.41696 4.37648 10.7099 0.0834961 16.0003 0.0834961C18.1777 0.0834961 20.1765 0.792279 21.7912 2.02256C22.3403 2.44095 22.4463 3.22526 22.028 3.7744C21.6095 4.32353 20.8252 4.42951 20.2762 4.01113C19.0908 3.10808 17.6228 2.5835 16.0003 2.5835C12.0907 2.5835 8.91696 5.75718 8.91696 9.66683C8.91696 13.5765 12.0907 16.7502 16.0003 16.7502C19.91 16.7502 23.0837 13.5765 23.0837 9.66683C23.0837 8.97648 23.6433 8.41683 24.3337 8.41683C25.024 8.41683 25.5837 8.97648 25.5837 9.66683C25.5837 14.9572 21.2907 19.2502 16.0003 19.2502C10.7099 19.2502 6.41696 14.9572 6.41696 9.66683Z" fill="white"/>
<path fill-rule="evenodd" clip-rule="evenodd" d="M29.5558 22.0443C30.6612 21.9308 31.6783 22.4273 32.5842 23.3332C33.4952 24.2442 33.9975 25.2633 33.8878 26.3713C33.7848 27.4133 33.1635 28.2215 32.5842 28.801L26.6968 34.6882C26.4525 34.9443 26.1518 35.1305 25.905 35.2538C25.6453 35.3837 25.3295 35.5015 25.0118 35.5517L24.9912 35.555L22.7437 35.8712C22.7442 35.871 22.7433 35.8712 22.7437 35.8712C22.0078 35.9758 21.248 35.7825 20.6997 35.2342C20.1515 34.686 19.9578 33.9275 20.0627 33.1917C20.0625 33.192 20.0627 33.1912 20.0627 33.1917L20.382 30.922C20.433 30.5992 20.5535 30.2855 20.6828 30.0298C20.812 29.7743 20.9958 29.487 21.233 29.2498L27.1332 23.3498C27.7125 22.7703 28.519 22.151 29.5558 22.0443ZM29.8113 24.5313C29.6315 24.5498 29.3382 24.6803 28.9008 25.1175L23.003 31.0155C23.0022 31.0165 22.9928 31.027 22.9773 31.0497C22.9575 31.0783 22.9352 31.1157 22.9135 31.1585C22.892 31.2012 22.875 31.2415 22.8635 31.2745C22.8563 31.2952 22.8528 31.3082 22.8517 31.3132L22.5618 33.372L24.622 33.0822C24.6273 33.0808 24.6425 33.077 24.6672 33.0685C24.7028 33.0563 24.7447 33.039 24.7872 33.0177C24.83 32.9963 24.864 32.9757 24.8867 32.9598C24.892 32.9562 24.8958 32.9533 24.8987 32.9512C24.9045 32.9452 24.9105 32.9392 24.9163 32.9332L30.8163 27.0332C31.2537 26.5958 31.3823 26.3042 31.4 26.1252C31.4112 26.0123 31.4053 25.6898 30.8163 25.1008C30.2388 24.5233 29.9227 24.5198 29.8113 24.5313Z" fill="white"/>
<path fill-rule="evenodd" clip-rule="evenodd" d="M26.8325 23.879C27.4977 23.6941 28.1867 24.0836 28.3713 24.7488C28.754 26.1263 29.824 27.1961 31.2015 27.5788C31.8667 27.7636 32.2562 28.4526 32.0713 29.1178C31.8865 29.783 31.1975 30.1725 30.5323 29.9876C28.31 29.3703 26.58 27.6403 25.9627 25.4178C25.7778 24.7526 26.1673 24.0636 26.8325 23.879Z" fill="white"/>
<path fill-rule="evenodd" clip-rule="evenodd" d="M16.0003 24.25C8.53841 24.25 2.93359 29.1348 2.93359 34.6667C2.93359 35.357 2.37394 35.9167 1.68359 35.9167C0.993227 35.9167 0.433594 35.357 0.433594 34.6667C0.433594 27.2985 7.66218 21.75 16.0003 21.75C17.8538 21.75 19.6418 22.0173 21.3107 22.5197C21.9717 22.7188 22.3462 23.416 22.1472 24.077C21.9482 24.738 21.251 25.1127 20.5898 24.9135C19.1587 24.4827 17.6135 24.25 16.0003 24.25Z" fill="white"/>
</svg>
