<svg width="20" height="20" viewBox="0 0 20 20" fill="none" xmlns="http://www.w3.org/2000/svg">
<path d="M13.3333 1.66663H6.66667C3.33333 1.66663 1.66667 3.33329 1.66667 6.66663V17.5C1.66667 17.9583 2.04167 18.3333 2.5 18.3333H13.3333C16.6667 18.3333 18.3333 16.6666 18.3333 13.3333V6.66663C18.3333 3.33329 16.6667 1.66663 13.3333 1.66663Z" stroke="#4B5563" stroke-width="1.1" stroke-linecap="round" stroke-linejoin="round"/>
<path d="M10.7583 6.53334L6.43334 10.8583C6.26667 11.025 6.10834 11.35 6.07501 11.5833L5.84168 13.2333C5.75834 13.8333 6.17501 14.25 6.77501 14.1667L8.42499 13.9333C8.65832 13.9 8.98335 13.7417 9.15001 13.575L13.475 9.25C14.2167 8.50834 14.575 7.64167 13.475 6.54167C12.375 5.43334 11.5083 5.78334 10.7583 6.53334Z" stroke="#4B5563" stroke-width="1.1" stroke-miterlimit="10" stroke-linecap="round" stroke-linejoin="round"/>
<path d="M10.1417 7.15002C10.5083 8.45836 11.5333 9.49169 12.85 9.85836" stroke="#4B5563" stroke-width="1.1" stroke-miterlimit="10" stroke-linecap="round" stroke-linejoin="round"/>
</svg>
