<svg width="24" height="24" viewBox="0 0 24 24" fill="none" xmlns="http://www.w3.org/2000/svg">
<path d="M16 7L8 7" stroke="white" stroke-width="1.5" stroke-linecap="round" stroke-linejoin="round"/>
<path d="M16 11L8 11" stroke="white" stroke-width="1.5" stroke-linecap="round" stroke-linejoin="round"/>
<path d="M16 15L8 15" stroke="white" stroke-width="1.5" stroke-linecap="round" stroke-linejoin="round"/>
<path d="M18 3H6C4.89543 3 4 3.89543 4 5V19.4534C4 20.1791 4.74862 20.6631 5.41036 20.3653L7.58964 19.3847C7.85061 19.2672 8.14939 19.2672 8.41037 19.3847L11.5896 20.8153C11.8506 20.9328 12.1494 20.9328 12.4104 20.8153L15.5896 19.3847C15.8506 19.2672 16.1494 19.2672 16.4104 19.3847L18.5896 20.3653C19.2514 20.6631 20 20.1791 20 19.4534V5C20 3.89543 19.1046 3 18 3Z" stroke="white" stroke-width="1.5" stroke-linecap="round"/>
</svg>
