<svg width="24" height="24" viewBox="0 0 24 24" fill="none" xmlns="http://www.w3.org/2000/svg">
<path fill-rule="evenodd" clip-rule="evenodd" d="M12 9.17C10.4342 9.17 9.17 10.4342 9.17 12C9.17 12.5104 9.30393 12.9865 9.54029 13.399L13.399 9.54029C12.9865 9.30393 12.5104 9.17 12 9.17ZM7.67 12C7.67 9.60579 9.60579 7.67 12 7.67C13.1978 7.67 14.2761 8.15544 15.0603 8.93967C15.3532 9.23256 15.3532 9.70744 15.0603 10.0003L10.0003 15.0603C9.70744 15.3532 9.23256 15.3532 8.93967 15.0603C8.15544 14.2761 7.67 13.1978 7.67 12Z" fill="#3C3C3C"/>
<path fill-rule="evenodd" clip-rule="evenodd" d="M2.25749 9.00696C4.64841 5.2486 8.15202 2.98 12 2.98C14.2496 2.98 16.4055 3.76361 18.2716 5.17123C18.6023 5.42067 18.6682 5.89095 18.4188 6.22164C18.1693 6.55233 17.699 6.6182 17.3684 6.36877C15.7345 5.13639 13.8904 4.48 12 4.48C8.78815 4.48 5.71189 6.3712 3.52282 9.81254L3.52219 9.81353C3.16761 10.369 2.965 11.1642 2.965 12.005C2.965 12.8458 3.16761 13.641 3.52219 14.1965C4.27596 15.3796 5.14911 16.393 6.08903 17.2014C6.40308 17.4714 6.43872 17.945 6.16864 18.259C5.89856 18.5731 5.42502 18.6087 5.11097 18.3386C4.05089 17.427 3.08369 16.2999 2.25746 15.003C1.71229 14.1486 1.465 13.054 1.465 12.005C1.465 10.956 1.7123 9.86138 2.25749 9.00696Z" fill="#3C3C3C"/>
<path fill-rule="evenodd" clip-rule="evenodd" d="M19.5799 7.34559C19.9027 7.08598 20.3748 7.13717 20.6344 7.45993C21.0183 7.9372 21.3954 8.45005 21.7432 8.99813C22.2879 9.85237 22.535 10.9464 22.535 11.995C22.535 13.044 22.2877 14.1386 21.7425 14.993C19.3516 18.7514 15.848 21.02 12 21.02C10.6635 21.02 9.35483 20.7374 8.12896 20.2212C7.7472 20.0605 7.56804 19.6207 7.72877 19.239C7.88951 18.8572 8.32929 18.678 8.71104 18.8388C9.76517 19.2826 10.8765 19.52 12 19.52C15.2119 19.52 18.2881 17.6288 20.4772 14.1875L20.4778 14.1865C20.8324 13.631 21.035 12.8358 21.035 11.995C21.035 11.1542 20.8324 10.359 20.4778 9.80353L20.4768 9.80187C20.1646 9.30995 19.8217 8.8428 19.4656 8.40007C19.206 8.07731 19.2572 7.6052 19.5799 7.34559Z" fill="#3C3C3C"/>
<path fill-rule="evenodd" clip-rule="evenodd" d="M15.646 11.9624C16.0534 12.0375 16.3227 12.4287 16.2476 12.836C15.9312 14.5519 14.5419 15.9412 12.826 16.2576C12.4187 16.3327 12.0275 16.0634 11.9524 15.656C11.8773 15.2487 12.1466 14.8575 12.554 14.7824C13.6581 14.5788 14.5688 13.6681 14.7724 12.564C14.8475 12.1566 15.2387 11.8873 15.646 11.9624Z" fill="#3C3C3C"/>
<path fill-rule="evenodd" clip-rule="evenodd" d="M10.0003 13.9997C10.2932 14.2926 10.2932 14.7674 10.0003 15.0603L2.53033 22.5303C2.23744 22.8232 1.76256 22.8232 1.46967 22.5303C1.17678 22.2374 1.17678 21.7626 1.46967 21.4697L8.93967 13.9997C9.23256 13.7068 9.70744 13.7068 10.0003 13.9997Z" fill="#3C3C3C"/>
<path fill-rule="evenodd" clip-rule="evenodd" d="M22.5303 1.46967C22.8232 1.76256 22.8232 2.23744 22.5303 2.53033L15.0603 10.0003C14.7674 10.2932 14.2926 10.2932 13.9997 10.0003C13.7068 9.70744 13.7068 9.23256 13.9997 8.93967L21.4697 1.46967C21.7626 1.17678 22.2374 1.17678 22.5303 1.46967Z" fill="#3C3C3C"/>
</svg>
