<svg width="20" height="20" viewBox="0 0 20 20" fill="none" xmlns="http://www.w3.org/2000/svg">
    <path d="M1.00684 14.3782C0.378518 13.09 0.0188307 11.6466 0.000705662 10.1212C-0.0649975 4.58758 4.46602 0 10 0C15.5229 0 20 4.47715 20 10C20 11.5929 19.6276 13.0988 18.965 14.4353C18.8404 14.6868 18.5817 14.8438 18.3011 14.8438H1.74949C1.43321 14.8438 1.14551 14.6625 1.00684 14.3782Z" fill="#00B1FF"/>
    <path d="M2.05906 14.4583C1.5377 13.3893 1.23922 12.1917 1.22422 10.926C1.16969 6.33431 4.92937 2.52771 9.52133 2.52771C14.104 2.52771 17.819 6.24271 17.819 10.8254C17.819 12.1471 17.51 13.3967 16.9602 14.5057C16.8568 14.7143 16.6422 14.8446 16.4093 14.8446H2.67527C2.41281 14.8446 2.1741 14.6942 2.05906 14.4583Z" fill="#41BDF4"/>
    <path d="M19.0174 14.3295C18.6323 15.1301 18.1438 15.8716 17.569 16.5365C17.4273 16.7004 17.218 16.7928 17.0019 16.7772C16.2548 16.7231 15.498 16.8723 14.8232 17.237C14.373 17.4804 13.8801 17.6146 13.3632 17.6146C12.8464 17.6146 12.3535 17.4804 11.9034 17.2371C10.713 16.5936 9.28778 16.5936 8.09738 17.2371C7.64731 17.4804 7.15434 17.6146 6.63754 17.6146C6.12074 17.6146 5.62773 17.4804 5.17762 17.237C4.63137 16.9417 4.03133 16.7877 3.42625 16.7685C2.89168 16.7514 2.38836 16.5078 2.06273 16.0836C1.6457 15.5402 1.28316 14.9528 0.983398 14.3295C1.10313 14.2839 1.22043 14.2308 1.33504 14.1707C2.54109 13.5379 3.98738 13.5129 5.18774 14.1565C5.63512 14.3964 6.12461 14.5286 6.63758 14.5286C7.15438 14.5286 7.64734 14.3945 8.09742 14.1512C9.28781 13.5077 10.713 13.5077 11.9034 14.1512C12.3535 14.3945 12.8465 14.5286 13.3633 14.5286C13.8759 14.5286 14.365 14.3967 14.8121 14.1571C16.0137 13.5133 17.4606 13.5396 18.6682 14.1719C18.782 14.2315 18.8985 14.2842 19.0174 14.3295Z" fill="#2476ED"/>
    <path d="M8.28125 9.27734C8.28125 9.43918 8.15012 9.57031 7.98828 9.57031H4.73906L5.91383 12.287C5.97758 12.4357 5.90867 12.6079 5.75996 12.6716C5.72234 12.6878 5.6832 12.6954 5.64473 12.6954C5.53105 12.6954 5.42289 12.6289 5.37531 12.5177L4.1007 9.57031H2.91016C2.74832 9.57031 2.61719 9.43918 2.61719 9.27734C2.61719 9.11551 2.74832 8.98438 2.91016 8.98438H7.98828C8.15012 8.98438 8.28125 9.11551 8.28125 9.27734Z" fill="#865B47"/>
    <path d="M5.98116 2.36545C5.91085 2.80256 6.201 3.21631 6.63589 3.29917C6.82784 3.33573 6.90038 3.57237 6.76186 3.71022C6.44807 4.02253 6.4396 4.5278 6.74272 4.85045C6.87651 4.99288 6.79612 5.22694 6.60303 5.25706C6.16561 5.32526 5.86175 5.72905 5.91737 6.16827C5.9419 6.36213 5.73925 6.50424 5.56534 6.4151C5.17136 6.21319 4.68819 6.36124 4.47499 6.74924C4.38089 6.92049 4.13343 6.91635 4.04511 6.74202C3.84507 6.34706 3.36714 6.18288 2.96659 6.37147C2.78979 6.45471 2.59202 6.30588 2.62304 6.11295C2.69335 5.67585 2.40319 5.2621 1.96831 5.17924C1.77636 5.14268 1.70382 4.90604 1.84233 4.76819C2.15612 4.45588 2.1646 3.95061 1.86147 3.62795C1.72768 3.48553 1.80807 3.25147 2.00116 3.22135C2.43858 3.15315 2.74245 2.74936 2.68686 2.31014C2.66233 2.11628 2.86499 1.97417 3.0389 2.06331C3.43288 2.26522 3.91604 2.11717 4.12925 1.72917C4.22335 1.55792 4.47081 1.56206 4.55913 1.73639C4.75917 2.13135 5.2371 2.29553 5.63764 2.10694C5.81444 2.0237 6.01221 2.17253 5.98116 2.36545Z" fill="#FFDE91"/>
    <path d="M5.74523 4.2397C5.74523 5.03689 5.09898 5.68314 4.3018 5.68314C3.50461 5.68314 2.8584 5.03689 2.8584 4.2397C2.8584 3.44251 3.50465 2.79626 4.30184 2.79626C5.09902 2.79626 5.74523 3.44251 5.74523 4.2397Z" fill="#FFC14F"/>
    <path d="M5.16961 4.23849C5.16961 4.71681 4.78187 5.10455 4.30355 5.10455C3.82523 5.10455 3.4375 4.71681 3.4375 4.23849C3.4375 3.76017 3.82523 3.37244 4.30355 3.37244C4.78187 3.37244 5.16961 3.76021 5.16961 4.23849Z" fill="#FFA90B"/>
    <path d="M15.0814 13.5742L13.5339 11.6016L12.2588 1.07422H17.5007L18.2289 5.26098C18.7745 8.39871 17.5683 11.5846 15.0814 13.5742Z" fill="#FFA90B"/>
    <path d="M7.61374 17.4369C7.58222 17.4477 7.55014 17.4528 7.51858 17.4528C7.3969 17.4528 7.28323 17.3764 7.24151 17.2549L5.98655 13.5984L4.77722 17.2519C4.73647 17.3749 4.62198 17.4529 4.49913 17.4529C4.46862 17.4529 4.43761 17.4481 4.40706 17.438C4.25343 17.3871 4.17014 17.2214 4.22097 17.0678L5.66643 12.701C5.71132 12.5653 5.84581 12.4845 5.98245 12.5025C6.11764 12.4849 6.25108 12.564 6.29706 12.698L7.79577 17.0647C7.84827 17.2177 7.76679 17.3844 7.61374 17.4369Z" fill="#865B47"/>
    <path d="M9.32617 1.07422H17.5293L14.7949 13.1836H6.5918C7.66574 9.34473 8.55141 5.45566 9.24551 1.53035L9.32617 1.07422Z" fill="#FFE89C"/>
    <path d="M7.81309 13.1836H6.5918C7.66574 9.34473 8.55141 5.45566 9.24551 1.53031L9.32617 1.07422H10.5475L10.4668 1.53031C9.77266 5.45562 8.88703 9.34469 7.81309 13.1836Z" fill="#FFDE91"/>
    <path d="M15.1855 1.07422L15.1049 1.53035C14.4107 5.45566 13.5251 9.34473 12.4512 13.1836V13.1836H8.93555C10.0095 9.34477 10.8951 5.45574 11.5893 1.53039L11.6699 1.07422H15.1855Z" fill="#FFC14F"/>
    <path d="M17.8223 1.07422C17.8223 1.23605 17.6911 1.36719 17.5293 1.36719H9.32617C9.16434 1.36719 9.0332 1.23605 9.0332 1.07422C9.0332 0.912383 9.16434 0.78125 9.32617 0.78125H17.5293C17.6911 0.78125 17.8223 0.912383 17.8223 1.07422Z" fill="#FFCD71"/>
    <path d="M14.0137 13.9648H4.24805C3.81656 13.9648 3.4668 13.6151 3.4668 13.1836C3.4668 12.7521 3.81656 12.4023 4.24805 12.4023H14.7949L14.0137 13.9648Z" fill="#FCF2B6"/>
    <path d="M6.23168 13.9648H4.24805C3.81656 13.9648 3.4668 13.6151 3.4668 13.1836C3.4668 12.7521 3.81656 12.4023 4.24805 12.4023H6.23168C5.8002 12.4023 5.45043 12.7521 5.45043 13.1836C5.45043 13.6151 5.80023 13.9648 6.23168 13.9648Z" fill="#FFE89C"/>
    <path d="M17.9199 8.98443H15.7504C15.7463 8.98436 15.7421 8.98436 15.738 8.98443H10.498C10.3362 8.98443 10.2051 9.11557 10.2051 9.2774C10.2051 9.43924 10.3362 9.57037 10.498 9.57037H13.1059L14.27 12.7981L12.8567 17.0677C12.8059 17.2213 12.8892 17.3871 13.0428 17.4379C13.0734 17.448 13.1044 17.4528 13.1349 17.4528C13.2578 17.4528 13.3722 17.3749 13.413 17.2518L14.5918 13.6905L15.8773 17.2549C15.919 17.3764 16.0327 17.4528 16.1544 17.4528C16.1859 17.4528 16.218 17.4477 16.2495 17.4369C16.4026 17.3844 16.4841 17.2178 16.4315 17.0647L14.8899 12.7901L15.9557 9.57037H17.92C18.0818 9.57037 18.2129 9.43924 18.2129 9.2774C18.2129 9.11557 18.0818 8.98443 17.9199 8.98443ZM14.5681 11.8977L13.7287 9.57037H15.3384L14.5681 11.8977Z" fill="#865B47"/>
    <path d="M17.6303 16.4638C15.796 18.6275 13.058 20.0008 9.99926 20.0008C6.72789 20.0008 3.82344 18.43 1.99902 16.0015C2.29258 15.8228 2.61496 15.6671 2.96801 15.5477C4.81387 14.9234 5.655 15.9135 8.43676 16.2118C12.4832 16.6456 13.8507 14.8881 16.7961 16.0946C17.003 16.1793 17.3081 16.3043 17.6303 16.4638Z" fill="#FFDE91"/>
    <path d="M9.94969 20.0007C6.69859 19.9849 3.81426 18.4177 1.99902 16.0015C2.29262 15.8228 2.615 15.6671 2.96805 15.5477C4.20797 15.1284 4.99457 15.4375 6.22055 15.776C6.03984 15.8086 5.85102 15.8574 5.65035 15.9253C5.64684 15.9265 5.64328 15.9277 5.63977 15.9289C5.12172 16.1054 4.96367 16.7609 5.33508 17.1629C6.56621 18.4954 8.15535 19.4922 9.94969 20.0007Z" fill="#FFCD71"/>
    <path d="M6.13574 17.3984C6.13574 17.6141 5.96086 17.789 5.74512 17.789C5.52938 17.789 5.35449 17.6141 5.35449 17.3984C5.35449 17.1826 5.52938 17.0078 5.74512 17.0078C5.96086 17.0078 6.13574 17.1826 6.13574 17.3984ZM11.2941 18.1485C11.0784 18.1485 10.9035 18.3234 10.9035 18.5391C10.9035 18.7549 11.0784 18.9298 11.2941 18.9298C11.5099 18.9298 11.6848 18.7549 11.6848 18.5391C11.6848 18.3234 11.5099 18.1485 11.2941 18.1485ZM14.5323 16.442C14.3166 16.442 14.1417 16.6169 14.1417 16.8326C14.1417 17.0484 14.3166 17.2233 14.5323 17.2233C14.748 17.2233 14.9229 17.0484 14.9229 16.8326C14.9229 16.6169 14.748 16.442 14.5323 16.442ZM6.83328 18.1485C6.61754 18.1485 6.44266 18.3234 6.44266 18.5391C6.44266 18.7549 6.61754 18.9298 6.83328 18.9298C7.04902 18.9298 7.22391 18.7549 7.22391 18.5391C7.22391 18.3234 7.04902 18.1485 6.83328 18.1485ZM9.5202 16.8326C9.30445 16.8326 9.12957 17.0075 9.12957 17.2233C9.12957 17.439 9.30445 17.6139 9.5202 17.6139C9.73594 17.6139 9.91082 17.439 9.91082 17.2233C9.91082 17.0075 9.73594 16.8326 9.5202 16.8326Z" fill="#E4AB45"/>
</svg>
