<svg width="24" height="24" viewBox="0 0 24 24" fill="none" xmlns="http://www.w3.org/2000/svg">
<path fill-rule="evenodd" clip-rule="evenodd" d="M1.25 10C1.25 6.27208 4.27208 3.25 8 3.25H16C19.7279 3.25 22.75 6.27208 22.75 10V14C22.75 17.7279 19.7279 20.75 16 20.75H8C4.27208 20.75 1.25 17.7279 1.25 14V10ZM8 4.75C5.10051 4.75 2.75 7.10051 2.75 10V14C2.75 16.8995 5.10051 19.25 8 19.25H16C18.8995 19.25 21.25 16.8995 21.25 14V10C21.25 7.10051 18.8995 4.75 16 4.75H8Z" fill="white"/>
<path fill-rule="evenodd" clip-rule="evenodd" d="M14.25 13C14.25 12.5858 14.5858 12.25 15 12.25H18C18.4142 12.25 18.75 12.5858 18.75 13C18.75 13.4142 18.4142 13.75 18 13.75H15C14.5858 13.75 14.25 13.4142 14.25 13ZM14.25 16C14.25 15.5858 14.5858 15.25 15 15.25H18C18.4142 15.25 18.75 15.5858 18.75 16C18.75 16.4142 18.4142 16.75 18 16.75H15C14.5858 16.75 14.25 16.4142 14.25 16Z" fill="white"/>
<path fill-rule="evenodd" clip-rule="evenodd" d="M5.25 10C5.25 8.48122 6.48122 7.25 8 7.25H9C10.5188 7.25 11.75 8.48122 11.75 10C11.75 11.5188 10.5188 12.75 9 12.75H8C6.48122 12.75 5.25 11.5188 5.25 10ZM8 8.75C7.30964 8.75 6.75 9.30964 6.75 10C6.75 10.6904 7.30964 11.25 8 11.25H9C9.69036 11.25 10.25 10.6904 10.25 10C10.25 9.30964 9.69036 8.75 9 8.75H8Z" fill="white"/>
</svg>
