<svg width="116" height="27" viewBox="0 0 116 27" fill="none" xmlns="http://www.w3.org/2000/svg">
<path d="M1.58915 26C1.09065 26 0.729246 25.8878 0.504925 25.6635C0.305528 25.4392 0.205829 25.1027 0.205829 24.6541V1.9602C0.205829 1.48663 0.305528 1.13769 0.504925 0.913366C0.729246 0.689044 1.09065 0.576883 1.58915 0.576883H3.57065C4.06915 0.576883 4.43055 0.689044 4.65487 0.913366C4.8792 1.13769 4.99136 1.48663 4.99136 1.9602V24.6541C4.99136 25.1027 4.8792 25.4392 4.65487 25.6635C4.45548 25.8878 4.09407 26 3.57065 26H1.58915ZM16.2074 26C15.9333 26 15.7214 25.9751 15.5719 25.9252C15.4472 25.8754 15.3102 25.7632 15.1606 25.5887L6.15035 14.7465C5.92603 14.4724 5.76402 14.2356 5.66432 14.0362C5.56462 13.8368 5.51477 13.5751 5.51477 13.2511C5.51477 12.927 5.55216 12.6778 5.62694 12.5033C5.72663 12.3288 5.90111 12.0796 6.15035 11.7556L14.9363 1.02553C15.0858 0.826128 15.2354 0.701505 15.3849 0.651656C15.5345 0.601807 15.7713 0.576883 16.0953 0.576883H19.5349C19.7093 0.576883 19.8464 0.626732 19.9461 0.726429C20.0458 0.826128 20.0957 0.950751 20.0957 1.1003C20.0957 1.2997 20.0209 1.47417 19.8714 1.62372L10.1881 13.2511L20.0957 24.9532C20.2452 25.1027 20.32 25.2772 20.32 25.4766C20.32 25.6261 20.2702 25.7508 20.1705 25.8505C20.0708 25.9502 19.9337 26 19.7592 26H16.2074ZM22.1096 26C21.6859 26 21.474 25.8131 21.474 25.4392C21.474 25.2896 21.5114 25.1276 21.5862 24.9532L31.4563 1.54894C31.6059 1.17507 31.7679 0.925827 31.9424 0.801204C32.1168 0.651657 32.3661 0.576883 32.6901 0.576883H34.7464C35.0953 0.576883 35.3446 0.651657 35.4941 0.801204C35.6686 0.925827 35.8306 1.17507 35.9802 1.54894L45.8503 24.9532C45.9251 25.1276 45.9625 25.2896 45.9625 25.4392C45.9625 25.8131 45.7506 26 45.3269 26H42.0742C41.7502 26 41.5134 25.9626 41.3639 25.8878C41.2393 25.7881 41.1146 25.6012 40.99 25.327L38.859 20.0929H28.5402L26.4465 25.327C26.3219 25.6012 26.1848 25.7881 26.0352 25.8878C25.9106 25.9626 25.6863 26 25.3623 26H22.1096ZM37.6626 16.6159L33.6996 6.8205L29.7365 16.6159H37.6626ZM52.7444 26C52.2459 26 51.8845 25.8878 51.6602 25.6635C51.4359 25.4392 51.3237 25.1027 51.3237 24.6541V4.2408H44.781C44.2825 4.2408 43.9335 4.1411 43.7342 3.94171C43.5597 3.74231 43.4724 3.40583 43.4724 2.93226V1.92281C43.4724 1.44924 43.5597 1.11276 43.7342 0.913366C43.9335 0.689044 44.2825 0.576883 44.781 0.576883H62.6519C63.1504 0.576883 63.4994 0.689044 63.6988 0.913366C63.8982 1.11276 63.9979 1.44924 63.9979 1.92281V2.93226C63.9979 3.40583 63.8982 3.74231 63.6988 3.94171C63.4994 4.1411 63.1504 4.2408 62.6519 4.2408H56.1092V24.6541C56.1092 25.1027 55.9971 25.4392 55.7727 25.6635C55.5733 25.8878 55.2119 26 54.6885 26H52.7444ZM77.2699 26.5608C73.1574 26.5608 69.992 25.4018 67.7737 23.0838C65.5803 20.7658 64.4836 17.5007 64.4836 13.2884C64.4836 9.07618 65.5803 5.81105 67.7737 3.49306C69.992 1.17507 73.1574 0.0160774 77.2699 0.0160774C81.3576 0.0160774 84.5105 1.17507 86.7288 3.49306C88.9471 5.81105 90.0563 9.07618 90.0563 13.2884C90.0563 17.5007 88.9471 20.7658 86.7288 23.0838C84.5105 25.4018 81.3576 26.5608 77.2699 26.5608ZM77.2699 23.0464C79.887 23.0464 81.881 22.2239 83.2519 20.5789C84.6227 18.9089 85.3081 16.4788 85.3081 13.2884C85.3081 10.0981 84.6227 7.6804 83.2519 6.03537C81.881 4.39035 79.887 3.56784 77.2699 3.56784C74.6529 3.56784 72.6464 4.39035 71.2506 6.03537C69.8798 7.6804 69.1944 10.0981 69.1944 13.2884C69.1944 16.4788 69.8798 18.9089 71.2506 20.5789C72.6464 22.2239 74.6529 23.0464 77.2699 23.0464ZM95.093 26C94.5945 26 94.2331 25.8878 94.0088 25.6635C93.8094 25.4392 93.7097 25.1027 93.7097 24.6541V1.9602C93.7097 1.48663 93.8094 1.13769 94.0088 0.913366C94.2331 0.689044 94.607 0.576883 95.1304 0.576883H96.8502C97.1991 0.576883 97.4733 0.626732 97.6727 0.726429C97.8721 0.826128 98.0715 1.02553 98.2709 1.32462L110.609 18.4478V1.9602C110.609 1.48663 110.708 1.13769 110.908 0.913366C111.132 0.689044 111.493 0.576883 111.992 0.576883H113.973C114.472 0.576883 114.833 0.689044 115.058 0.913366C115.282 1.13769 115.394 1.48663 115.394 1.9602V24.6541C115.394 25.1027 115.282 25.4392 115.058 25.6635C114.858 25.8878 114.497 26 113.973 26H112.216C111.867 26 111.606 25.9626 111.431 25.8878C111.257 25.7881 111.057 25.5887 110.833 25.2896L98.4952 8.20382V24.6541C98.4952 25.1027 98.383 25.4392 98.1587 25.6635C97.9593 25.8878 97.5979 26 97.0745 26H95.093Z" fill="#00BEE3"/>
</svg>
