<svg width="24" height="24" viewBox="0 0 24 24" fill="none" xmlns="http://www.w3.org/2000/svg">
<path fill-rule="evenodd" clip-rule="evenodd" d="M12.0001 4.75C9.5302 4.75 7.45187 6.59996 7.16566 9.05323L6.86121 11.6628C6.76797 12.462 6.43437 13.2141 5.90451 13.8196C5.41657 14.3773 5.81259 15.25 6.55356 15.25H17.4467C18.1876 15.25 18.5837 14.3773 18.0957 13.8196C17.5659 13.2141 17.2323 12.462 17.139 11.6628L16.8346 9.05323C16.5484 6.59996 14.47 4.75 12.0001 4.75ZM5.67576 8.87941C6.05018 5.67008 8.76902 3.25 12.0001 3.25C15.2312 3.25 17.95 5.67008 18.3245 8.87941L18.6289 11.4889C18.687 11.9866 18.8947 12.4548 19.2246 12.8319C20.5612 14.3594 19.4764 16.75 17.4467 16.75H6.55356C4.52385 16.75 3.43907 14.3594 4.77564 12.8319C5.10555 12.4548 5.31326 11.9866 5.37132 11.4889L5.67576 8.87941Z" fill="white"/>
<path fill-rule="evenodd" clip-rule="evenodd" d="M10.75 18C10.75 18.6904 11.3096 19.25 12 19.25C12.6904 19.25 13.25 18.6904 13.25 18H14.75C14.75 19.5188 13.5188 20.75 12 20.75C10.4812 20.75 9.25 19.5188 9.25 18H10.75Z" fill="white"/>
</svg>
