<svg width="20" height="20" viewBox="0 0 20 20" fill="none" xmlns="http://www.w3.org/2000/svg">
<path d="M10 15.8333C11.8409 15.8333 13.3333 14.3409 13.3333 12.5C13.3333 10.659 11.8409 9.16663 10 9.16663C8.15905 9.16663 6.66667 10.659 6.66667 12.5C6.66667 14.3409 8.15905 15.8333 10 15.8333Z" stroke="#4B5563" stroke-width="1.1" stroke-miterlimit="10" stroke-linecap="round" stroke-linejoin="round"/>
<path d="M10.2083 11.4584V12.2334C10.2083 12.525 10.0583 12.8 9.8 12.95L9.16667 13.3334" stroke="#4B5563" stroke-width="1.1" stroke-miterlimit="10" stroke-linecap="round" stroke-linejoin="round"/>
<path d="M7.5 18.3333H12.5C15.85 18.3333 16.45 16.9916 16.625 15.3583L17.25 10.3583C17.475 8.32496 16.8917 6.66663 13.3333 6.66663H6.66667C3.10833 6.66663 2.525 8.32496 2.75 10.3583L3.375 15.3583C3.55 16.9916 4.15 18.3333 7.5 18.3333Z" stroke="#4B5563" stroke-width="1.1" stroke-miterlimit="10" stroke-linecap="round" stroke-linejoin="round"/>
<path d="M6.25 6.39167V5.58334C6.25 3.70834 7.75833 1.86667 9.63333 1.69167C11.8667 1.47501 13.75 3.23334 13.75 5.42501V6.57501" stroke="#4B5563" stroke-width="1.1" stroke-miterlimit="10" stroke-linecap="round" stroke-linejoin="round"/>
</svg>
