<svg width="12" height="12" viewBox="0 0 12 12" fill="none" xmlns="http://www.w3.org/2000/svg">
<path d="M6.47789 1.66841L7.5152 3.54425C7.65732 3.80173 8.01402 4.04634 8.30736 4.0794L10.0534 4.29888C11.1714 4.43698 11.4597 5.23039 10.6988 6.06143L9.40261 7.4693C9.18622 7.70523 9.0739 8.15533 9.16085 8.46426L9.61502 10.1218C9.97225 11.4304 9.2929 11.9728 8.09906 11.33L6.43134 10.4319C6.1276 10.2677 5.64514 10.2916 5.35979 10.476L3.77219 11.5036C2.63568 12.2381 1.91249 11.7545 2.16187 10.4222L2.48121 8.73599C2.54083 8.42079 2.39789 7.98095 2.16196 7.76457L0.746361 6.46626C-0.0797824 5.70261 0.142445 4.8887 1.24332 4.65794L2.96226 4.29889C3.25235 4.23587 3.58854 3.96995 3.70658 3.69938L4.58724 1.74136C5.06861 0.686413 5.91786 0.653172 6.47789 1.66841Z" fill="#FEBE18"/>
</svg>
