<svg width="20" height="20" viewBox="0 0 20 20" fill="none" xmlns="http://www.w3.org/2000/svg">
    <path d="M15.8838 20H0V5H20V15.8838L15.8838 20Z" fill="#E4EDFB"/>
    <path d="M0 5H20V7.5H0V5Z" fill="#D7E1F2"/>
    <path d="M3.75 2.5H2.5V0.625C2.5 0.279846 2.77985 0 3.125 0C3.47015 0 3.75 0.279846 3.75 0.625V2.5Z" fill="#BFC9D1"/>
    <path d="M17.5 2.5H16.25V0.625C16.25 0.279846 16.5298 0 16.875 0C17.2202 0 17.5 0.279846 17.5 0.625V2.5Z" fill="#BFC9D1"/>
    <path d="M15.8857 15.8838V20L20.002 15.8838H15.8857Z" fill="#C8D5E8"/>
    <path d="M20 6.25H0V3.125C0 2.43469 0.559692 1.875 1.25 1.875H18.75C19.4403 1.875 20 2.43469 20 3.125V6.25Z" fill="#F84A2E"/>
    <path d="M13.1514 17.0605L9.99951 15.463L6.84766 17.0605L7.44946 13.6729L4.87012 11.2498L8.43259 10.751L9.99951 7.69043L11.5664 10.751L15.1289 11.2498L12.5496 13.6729L13.1514 17.0605Z" fill="#FFCC35"/>
    <path d="M13.1523 17.0615L10.0005 15.4639L6.84863 17.0615L7.45044 13.6739L11.5674 10.752L15.1299 11.2508L12.5505 13.6739L13.1523 17.0615Z" fill="#F5B000"/>
</svg>
