<svg width="158" height="77" viewBox="0 0 158 77" fill="none" xmlns="http://www.w3.org/2000/svg">
<path d="M4.72421 56C4.06807 56 3.59237 55.8524 3.29711 55.5571C3.03465 55.2618 2.90342 54.8189 2.90342 54.2284V24.3576C2.90342 23.7343 3.03465 23.275 3.29711 22.9797C3.59237 22.6845 4.06807 22.5368 4.72421 22.5368H7.33237C7.98851 22.5368 8.46421 22.6845 8.75947 22.9797C9.05474 23.275 9.20237 23.7343 9.20237 24.3576V54.2284C9.20237 54.8189 9.05474 55.2618 8.75947 55.5571C8.49702 55.8524 8.02132 56 7.33237 56H4.72421ZM23.9655 56C23.6047 56 23.3258 55.9672 23.129 55.9016C22.9649 55.836 22.7845 55.6883 22.5876 55.4587L10.7279 41.1876C10.4326 40.8268 10.2194 40.5151 10.0882 40.2526C9.95693 39.9902 9.89132 39.6457 9.89132 39.2192C9.89132 38.7927 9.94053 38.4646 10.0389 38.235C10.1702 38.0053 10.3998 37.6773 10.7279 37.2508L22.2924 23.1274C22.4892 22.8649 22.6861 22.7009 22.8829 22.6353C23.0797 22.5696 23.3914 22.5368 23.8179 22.5368H28.3453C28.5749 22.5368 28.7554 22.6025 28.8866 22.7337C29.0178 22.8649 29.0834 23.0289 29.0834 23.2258C29.0834 23.4882 28.985 23.7179 28.7882 23.9147L16.0426 39.2192L29.0834 54.6221C29.2803 54.8189 29.3787 55.0486 29.3787 55.3111C29.3787 55.5079 29.3131 55.6719 29.1818 55.8032C29.0506 55.9344 28.8702 56 28.6405 56H23.9655ZM31.7343 56C31.1765 56 30.8977 55.7539 30.8977 55.2618C30.8977 55.065 30.9469 54.8518 31.0453 54.6221L44.0369 23.8163C44.2337 23.3242 44.447 22.9961 44.6766 22.8321C44.9063 22.6353 45.2343 22.5368 45.6608 22.5368H48.3674C48.8267 22.5368 49.1548 22.6353 49.3516 22.8321C49.5813 22.9961 49.7945 23.3242 49.9914 23.8163L62.9829 54.6221C63.0814 54.8518 63.1306 55.065 63.1306 55.2618C63.1306 55.7539 62.8517 56 62.294 56H58.0127C57.5862 56 57.2745 55.9508 57.0777 55.8524C56.9136 55.7211 56.7496 55.4751 56.5856 55.1142L53.7806 48.2247H40.1985L37.4427 55.1142C37.2786 55.4751 37.0982 55.7211 36.9014 55.8524C36.7373 55.9508 36.4421 56 36.0156 56H31.7343ZM52.2058 43.6482L46.9895 30.755L41.7732 43.6482H52.2058ZM72.0573 56C71.4011 56 70.9254 55.8524 70.6302 55.5571C70.3349 55.2618 70.1873 54.8189 70.1873 54.2284V27.3595H61.5754C60.9193 27.3595 60.46 27.2282 60.1975 26.9658C59.9679 26.7033 59.8531 26.2604 59.8531 25.6371V24.3084C59.8531 23.6851 59.9679 23.2422 60.1975 22.9797C60.46 22.6845 60.9193 22.5368 61.5754 22.5368H85.0981C85.7542 22.5368 86.2135 22.6845 86.476 22.9797C86.7384 23.2422 86.8697 23.6851 86.8697 24.3084V25.6371C86.8697 26.2604 86.7384 26.7033 86.476 26.9658C86.2135 27.2282 85.7542 27.3595 85.0981 27.3595H76.4862V54.2284C76.4862 54.8189 76.3386 55.2618 76.0433 55.5571C75.7809 55.8524 75.3052 56 74.6162 56H72.0573ZM104.339 56.7382C98.9259 56.7382 94.7594 55.2126 91.8395 52.1616C88.9525 49.1105 87.509 44.8128 87.509 39.2684C87.509 33.724 88.9525 29.4263 91.8395 26.3753C94.7594 23.3242 98.9259 21.7987 104.339 21.7987C109.719 21.7987 113.869 23.3242 116.789 26.3753C119.709 29.4263 121.169 33.724 121.169 39.2684C121.169 44.8128 119.709 49.1105 116.789 52.1616C113.869 55.2126 109.719 56.7382 104.339 56.7382ZM104.339 52.1124C107.784 52.1124 110.408 51.0297 112.213 48.8645C114.017 46.6664 114.919 43.4677 114.919 39.2684C114.919 35.0691 114.017 31.8868 112.213 29.7216C110.408 27.5563 107.784 26.4737 104.339 26.4737C100.894 26.4737 98.2533 27.5563 96.4161 29.7216C94.6117 31.8868 93.7095 35.0691 93.7095 39.2684C93.7095 43.4677 94.6117 46.6664 96.4161 48.8645C98.2533 51.0297 100.894 52.1124 104.339 52.1124ZM127.799 56C127.142 56 126.667 55.8524 126.371 55.5571C126.109 55.2618 125.978 54.8189 125.978 54.2284V24.3576C125.978 23.7343 126.109 23.275 126.371 22.9797C126.667 22.6845 127.159 22.5368 127.848 22.5368H130.111C130.571 22.5368 130.932 22.6025 131.194 22.7337C131.457 22.8649 131.719 23.1274 131.981 23.521L148.221 46.0595V24.3576C148.221 23.7343 148.352 23.275 148.615 22.9797C148.91 22.6845 149.386 22.5368 150.042 22.5368H152.65C153.306 22.5368 153.782 22.6845 154.077 22.9797C154.372 23.275 154.52 23.7343 154.52 24.3576V54.2284C154.52 54.8189 154.372 55.2618 154.077 55.5571C153.815 55.8524 153.339 56 152.65 56H150.337C149.878 56 149.533 55.9508 149.304 55.8524C149.074 55.7211 148.811 55.4587 148.516 55.065L132.277 32.5758V54.2284C132.277 54.8189 132.129 55.2618 131.834 55.5571C131.571 55.8524 131.096 56 130.407 56H127.799Z" fill="#00BEE3"/>
<path d="M7.32316 68.1737C6.07263 68.1737 5.15018 67.973 4.55579 67.5716C4.48632 67.5253 4.45158 67.4712 4.45158 67.4095C4.45158 67.3632 4.47088 67.3091 4.50947 67.2474L4.84526 66.68C4.89158 66.6028 4.93404 66.5642 4.97263 66.5642C5.00351 66.5642 5.05754 66.5835 5.13474 66.6221C5.38947 66.7611 5.68281 66.873 6.01474 66.9579C6.35439 67.0428 6.72105 67.0853 7.11474 67.0853C7.74772 67.0853 8.21088 66.9656 8.50421 66.7263C8.80526 66.4793 8.95579 66.1396 8.95579 65.7074C8.95579 64.9046 8.46561 64.5032 7.48526 64.5032H6.51263C6.35825 64.5032 6.24632 64.4723 6.17684 64.4105C6.11509 64.3411 6.08421 64.233 6.08421 64.0863V63.7853C6.08421 63.6463 6.11509 63.546 6.17684 63.4842C6.24632 63.4225 6.35825 63.3916 6.51263 63.3916H7.46211C7.87895 63.3916 8.19158 63.2835 8.4 63.0674C8.60842 62.8435 8.71263 62.5618 8.71263 62.2221C8.71263 61.4425 8.16456 61.0526 7.06842 61.0526C6.38912 61.0526 5.79088 61.1954 5.27368 61.4811C5.19649 61.5196 5.14246 61.5389 5.11158 61.5389C5.07298 61.5389 5.03053 61.5042 4.98421 61.4347L4.66 60.8905C4.6214 60.8288 4.60211 60.7747 4.60211 60.7284C4.60211 60.6667 4.63684 60.6126 4.70632 60.5663C4.97649 60.3733 5.33544 60.2228 5.78316 60.1147C6.23088 60.0067 6.72877 59.9526 7.27684 59.9526C7.87123 59.9526 8.38456 60.0453 8.81684 60.2305C9.25684 60.4158 9.59263 60.6782 9.82421 61.0179C10.0635 61.3498 10.1832 61.7396 10.1832 62.1874C10.1832 62.5502 10.0944 62.886 9.91684 63.1947C9.74702 63.5035 9.5 63.7428 9.17579 63.9126C9.59263 64.067 9.9014 64.3063 10.1021 64.6305C10.3105 64.947 10.4147 65.3214 10.4147 65.7537C10.4147 66.4793 10.1446 67.066 9.60421 67.5137C9.07158 67.9537 8.31123 68.1737 7.32316 68.1737ZM14.5342 68.1737C13.5693 68.1737 12.7897 67.8881 12.1953 67.3168C11.6086 66.7379 11.3153 65.8232 11.3153 64.5726C11.3153 63.4765 11.4812 62.5849 11.8132 61.8979C12.1451 61.2032 12.5774 60.7053 13.11 60.4042C13.6426 60.1032 14.2216 59.9526 14.8469 59.9526C15.7654 59.9526 16.5142 60.1533 17.0932 60.5547C17.1626 60.6088 17.1974 60.6628 17.1974 60.7168C17.1974 60.7632 17.1819 60.8133 17.1511 60.8674L16.8384 61.4116C16.7921 61.4888 16.7458 61.5274 16.6995 61.5274C16.6609 61.5274 16.6069 61.5042 16.5374 61.4579C16.3135 61.3189 16.0742 61.2186 15.8195 61.1568C15.5725 61.0874 15.2753 61.0526 14.9279 61.0526C14.3026 61.0526 13.8163 61.2263 13.469 61.5737C13.1216 61.9133 12.8823 62.446 12.7511 63.1716C13.029 62.9323 13.3416 62.7625 13.689 62.6621C14.044 62.554 14.457 62.5 14.9279 62.5C15.5069 62.5 16.0125 62.6119 16.4447 62.8358C16.8847 63.0519 17.2244 63.3607 17.4637 63.7621C17.7107 64.1558 17.8342 64.6112 17.8342 65.1284C17.8342 66.1319 17.5447 66.8923 16.9658 67.4095C16.3869 67.9189 15.5763 68.1737 14.5342 68.1737ZM14.5342 67.0853C15.7539 67.0853 16.3637 66.4446 16.3637 65.1632C16.3637 64.6151 16.2016 64.1944 15.8774 63.9011C15.5532 63.6 15.1209 63.4495 14.5805 63.4495C14.1019 63.4495 13.6851 63.5961 13.33 63.8895C12.9749 64.1751 12.7974 64.6112 12.7974 65.1979C12.7974 65.854 12.9518 66.3326 13.2605 66.6337C13.577 66.9347 14.0016 67.0853 14.5342 67.0853ZM22.5657 68.1737C21.2997 68.1737 20.3425 67.8225 19.6941 67.12C19.0534 66.4098 18.733 65.3909 18.733 64.0632C18.733 62.7354 19.0534 61.7204 19.6941 61.0179C20.3425 60.3077 21.2997 59.9526 22.5657 59.9526C23.8239 59.9526 24.7772 60.3077 25.4257 61.0179C26.0741 61.7281 26.3983 62.7432 26.3983 64.0632C26.3983 65.3832 26.0741 66.3982 25.4257 67.1084C24.7772 67.8186 23.8239 68.1737 22.5657 68.1737ZM23.8741 61.4C23.5422 61.1684 23.106 61.0526 22.5657 61.0526C21.7629 61.0526 21.1646 61.3035 20.7709 61.8053C20.385 62.307 20.192 63.0596 20.192 64.0632C20.192 64.8582 20.3541 65.4719 20.6783 65.9042L23.8741 61.4ZM22.5657 67.0853C23.3685 67.0853 23.9629 66.8344 24.3488 66.3326C24.7348 65.8309 24.9278 65.0744 24.9278 64.0632C24.9278 63.2835 24.7734 62.6737 24.4646 62.2337L21.2572 66.7611C21.6046 66.9772 22.0408 67.0853 22.5657 67.0853ZM27.64 65.1053C27.5165 65.1053 27.4277 65.0782 27.3736 65.0242C27.3273 64.9702 27.3042 64.8814 27.3042 64.7579V64.3295C27.3042 64.206 27.3273 64.1172 27.3736 64.0632C27.4277 64.0091 27.5165 63.9821 27.64 63.9821H31.5189C31.6347 63.9821 31.7196 64.013 31.7736 64.0747C31.8277 64.1288 31.8547 64.2137 31.8547 64.3295V64.7579C31.8547 64.8737 31.8277 64.9625 31.7736 65.0242C31.7196 65.0782 31.6347 65.1053 31.5189 65.1053H27.64ZM33.4144 68C33.26 68 33.1481 67.9653 33.0786 67.8958C33.0169 67.8263 32.986 67.7221 32.986 67.5832V60.5547C32.986 60.4081 33.0169 60.3 33.0786 60.2305C33.1481 60.1611 33.26 60.1263 33.4144 60.1263H35.7302C37.0348 60.1263 38.0306 60.4389 38.7176 61.0642C39.4123 61.6895 39.7597 62.6891 39.7597 64.0632C39.7597 66.6877 38.4165 68 35.7302 68H33.4144ZM35.8228 66.8768C36.6411 66.8768 37.2548 66.6646 37.6639 66.24C38.0807 65.8154 38.2892 65.0898 38.2892 64.0632C38.2892 63.0365 38.0807 62.3147 37.6639 61.8979C37.2548 61.4733 36.6411 61.2611 35.8228 61.2611H34.4681V66.8768H35.8228ZM43.8889 68.1737C43.2868 68.1737 42.7426 68.0733 42.2563 67.8726C41.77 67.6642 41.3802 67.3477 41.0868 66.9232C40.8012 66.4909 40.6584 65.9544 40.6584 65.3137C40.6584 64.3179 40.9247 63.5614 41.4574 63.0442C41.99 62.527 42.7465 62.2684 43.7268 62.2684C44.6995 62.2684 45.4328 62.5193 45.9268 63.0211C46.4286 63.5228 46.6795 64.2484 46.6795 65.1979C46.6795 65.4681 46.556 65.6032 46.3089 65.6032H42.0595C42.0595 66.1126 42.237 66.5063 42.5921 66.7842C42.9472 67.0544 43.4412 67.1895 44.0742 67.1895C44.684 67.1895 45.2321 67.0505 45.7184 66.7726C45.7724 66.7418 45.8149 66.7263 45.8458 66.7263C45.8998 66.7263 45.9423 66.7611 45.9731 66.8305L46.251 67.3284C46.2742 67.3747 46.2858 67.4172 46.2858 67.4558C46.2858 67.5098 46.251 67.56 46.1816 67.6063C45.8651 67.7993 45.5216 67.9421 45.151 68.0347C44.7882 68.1274 44.3675 68.1737 43.8889 68.1737ZM45.3363 64.7463C45.3363 64.2677 45.2012 63.8933 44.931 63.6232C44.6686 63.353 44.271 63.2179 43.7384 63.2179C43.1981 63.2179 42.7812 63.3568 42.4879 63.6347C42.2023 63.9126 42.0595 64.2832 42.0595 64.7463H45.3363ZM50.7628 69.9684C50.3151 69.9684 49.879 69.926 49.4544 69.8411C49.0299 69.7561 48.7057 69.6442 48.4818 69.5053C48.3583 69.4358 48.3274 69.3509 48.3892 69.2505L48.725 68.6832C48.7713 68.606 48.8176 68.5674 48.8639 68.5674C48.8948 68.5674 48.9334 68.5789 48.9797 68.6021C49.4043 68.8182 49.9562 68.9263 50.6355 68.9263C51.1527 68.9263 51.5309 68.8028 51.7702 68.5558C52.0095 68.3088 52.1292 67.8919 52.1292 67.3053C51.913 67.5368 51.6583 67.7105 51.365 67.8263C51.0793 67.9344 50.732 67.9884 50.3228 67.9884C49.4583 67.9884 48.7828 67.753 48.2965 67.2821C47.8179 66.8112 47.5786 66.1474 47.5786 65.2905C47.5786 64.3179 47.8643 63.573 48.4355 63.0558C49.0144 62.5309 49.8481 62.2684 50.9365 62.2684C51.4383 62.2684 51.9285 62.3379 52.4071 62.4768C52.8934 62.6158 53.2871 62.7895 53.5881 62.9979V66.9695C53.5881 67.9035 53.3604 68.6368 52.905 69.1695C52.4495 69.7021 51.7355 69.9684 50.7628 69.9684ZM50.6702 66.9C51.1025 66.9 51.4537 66.7881 51.7239 66.5642C51.9941 66.3326 52.1292 66.0161 52.1292 65.6147V63.5537C51.9825 63.4842 51.7972 63.4302 51.5734 63.3916C51.3495 63.353 51.1141 63.3337 50.8671 63.3337C49.6474 63.3337 49.0376 63.9551 49.0376 65.1979C49.0376 65.7691 49.1727 66.1975 49.4428 66.4832C49.713 66.7611 50.1221 66.9 50.6702 66.9ZM55.3966 68C55.2422 68 55.1303 67.9653 55.0608 67.8958C54.9913 67.8263 54.9566 67.7221 54.9566 67.5832V62.7547C54.9566 62.6389 54.9759 62.5579 55.0145 62.5116C55.0531 62.4653 55.1341 62.4421 55.2577 62.4421H55.9177C56.0026 62.4421 56.0643 62.4614 56.1029 62.5C56.1415 62.5309 56.1647 62.5888 56.1724 62.6737L56.2071 63.0905C56.6626 62.5425 57.2608 62.2684 58.0019 62.2684C58.3415 62.2684 58.6001 62.3263 58.7777 62.4421C58.824 62.473 58.851 62.5077 58.8587 62.5463C58.8741 62.5772 58.8741 62.6158 58.8587 62.6621L58.6503 63.3568C58.6271 63.434 58.5847 63.4726 58.5229 63.4726L58.4303 63.4495C58.245 63.3646 58.0327 63.3221 57.7934 63.3221C57.3998 63.3221 57.0755 63.434 56.8208 63.6579C56.5661 63.874 56.4387 64.1712 56.4387 64.5495V67.5832C56.4387 67.7221 56.404 67.8263 56.3345 67.8958C56.2727 67.9653 56.1608 68 55.9987 68H55.3966ZM62.7726 68.1737C62.1705 68.1737 61.6263 68.0733 61.1399 67.8726C60.6536 67.6642 60.2638 67.3477 59.9705 66.9232C59.6848 66.4909 59.542 65.9544 59.542 65.3137C59.542 64.3179 59.8084 63.5614 60.341 63.0442C60.8736 62.527 61.6301 62.2684 62.6105 62.2684C63.5831 62.2684 64.3164 62.5193 64.8105 63.0211C65.3122 63.5228 65.5631 64.2484 65.5631 65.1979C65.5631 65.4681 65.4396 65.6032 65.1926 65.6032H60.9431C60.9431 66.1126 61.1206 66.5063 61.4757 66.7842C61.8308 67.0544 62.3248 67.1895 62.9578 67.1895C63.5677 67.1895 64.1157 67.0505 64.602 66.7726C64.6561 66.7418 64.6985 66.7263 64.7294 66.7263C64.7834 66.7263 64.8259 66.7611 64.8568 66.8305L65.1347 67.3284C65.1578 67.3747 65.1694 67.4172 65.1694 67.4558C65.1694 67.5098 65.1347 67.56 65.0652 67.6063C64.7487 67.7993 64.4052 67.9421 64.0347 68.0347C63.6719 68.1274 63.2512 68.1737 62.7726 68.1737ZM64.2199 64.7463C64.2199 64.2677 64.0848 63.8933 63.8147 63.6232C63.5522 63.353 63.1547 63.2179 62.622 63.2179C62.0817 63.2179 61.6648 63.3568 61.3715 63.6347C61.0859 63.9126 60.9431 64.2832 60.9431 64.7463H64.2199ZM69.6928 68.1737C69.0907 68.1737 68.5465 68.0733 68.0602 67.8726C67.5739 67.6642 67.184 67.3477 66.8907 66.9232C66.6051 66.4909 66.4623 65.9544 66.4623 65.3137C66.4623 64.3179 66.7286 63.5614 67.2612 63.0442C67.7939 62.527 68.5503 62.2684 69.5307 62.2684C70.5033 62.2684 71.2367 62.5193 71.7307 63.0211C72.2325 63.5228 72.4833 64.2484 72.4833 65.1979C72.4833 65.4681 72.3598 65.6032 72.1128 65.6032H67.8633C67.8633 66.1126 68.0409 66.5063 68.396 66.7842C68.751 67.0544 69.2451 67.1895 69.8781 67.1895C70.4879 67.1895 71.036 67.0505 71.5223 66.7726C71.5763 66.7418 71.6188 66.7263 71.6496 66.7263C71.7037 66.7263 71.7461 66.7611 71.777 66.8305L72.0549 67.3284C72.0781 67.3747 72.0896 67.4172 72.0896 67.4558C72.0896 67.5098 72.0549 67.56 71.9854 67.6063C71.6689 67.7993 71.3254 67.9421 70.9549 68.0347C70.5921 68.1274 70.1714 68.1737 69.6928 68.1737ZM71.1402 64.7463C71.1402 64.2677 71.0051 63.8933 70.7349 63.6232C70.4725 63.353 70.0749 63.2179 69.5423 63.2179C69.0019 63.2179 68.5851 63.3568 68.2917 63.6347C68.0061 63.9126 67.8633 64.2832 67.8633 64.7463H71.1402ZM78.5542 68C78.3998 68 78.2879 67.9653 78.2184 67.8958C78.1567 67.8263 78.1258 67.7221 78.1258 67.5832V60.5547C78.1258 60.4081 78.1567 60.3 78.2184 60.2305C78.2879 60.1611 78.3998 60.1263 78.5542 60.1263H79.1679C79.3223 60.1263 79.4342 60.1611 79.5037 60.2305C79.5732 60.3 79.6079 60.4081 79.6079 60.5547V66.8768H83.1511C83.3054 66.8768 83.4135 66.9116 83.4753 66.9811C83.537 67.0428 83.5679 67.147 83.5679 67.2937V67.6063C83.5679 67.7453 83.537 67.8456 83.4753 67.9074C83.4135 67.9691 83.3054 68 83.1511 68H78.5542ZM87.4683 68.1737C86.8662 68.1737 86.322 68.0733 85.8357 67.8726C85.3493 67.6642 84.9595 67.3477 84.6662 66.9232C84.3806 66.4909 84.2378 65.9544 84.2378 65.3137C84.2378 64.3179 84.5041 63.5614 85.0367 63.0442C85.5693 62.527 86.3258 62.2684 87.3062 62.2684C88.2788 62.2684 89.0122 62.5193 89.5062 63.0211C90.0079 63.5228 90.2588 64.2484 90.2588 65.1979C90.2588 65.4681 90.1353 65.6032 89.8883 65.6032H85.6388C85.6388 66.1126 85.8164 66.5063 86.1714 66.7842C86.5265 67.0544 87.0206 67.1895 87.6536 67.1895C88.2634 67.1895 88.8114 67.0505 89.2978 66.7726C89.3518 66.7418 89.3943 66.7263 89.4251 66.7263C89.4792 66.7263 89.5216 66.7611 89.5525 66.8305L89.8304 67.3284C89.8536 67.3747 89.8651 67.4172 89.8651 67.4558C89.8651 67.5098 89.8304 67.56 89.7609 67.6063C89.4444 67.7993 89.1009 67.9421 88.7304 68.0347C88.3676 68.1274 87.9469 68.1737 87.4683 68.1737ZM88.9157 64.7463C88.9157 64.2677 88.7806 63.8933 88.5104 63.6232C88.2479 63.353 87.8504 63.2179 87.3178 63.2179C86.7774 63.2179 86.3606 63.3568 86.0672 63.6347C85.7816 63.9126 85.6388 64.2832 85.6388 64.7463H88.9157ZM93.6359 68.1737C92.8794 68.1737 92.2773 67.946 91.8296 67.4905C91.3819 67.0274 91.158 66.3789 91.158 65.5453C91.158 64.8968 91.3008 64.3256 91.5864 63.8316C91.872 63.3298 92.2773 62.9439 92.8022 62.6737C93.3348 62.4035 93.9524 62.2684 94.6548 62.2684C95.6352 62.2684 96.465 62.5 97.1443 62.9632V67.6874C97.1443 67.8032 97.1173 67.8842 97.0633 67.9305C97.0169 67.9768 96.932 68 96.8085 68H96.1717C96.0868 68 96.0212 67.9846 95.9748 67.9537C95.9362 67.9151 95.9092 67.8572 95.8938 67.78L95.8012 67.3284C95.5619 67.6218 95.2647 67.8379 94.9096 67.9768C94.5622 68.1081 94.1376 68.1737 93.6359 68.1737ZM94.1917 67.12C94.6008 67.12 94.9598 67.0004 95.2685 66.7611C95.585 66.5218 95.7433 66.2053 95.7433 65.8116V63.5537C95.5812 63.4688 95.4152 63.4109 95.2454 63.38C95.0833 63.3414 94.8826 63.3221 94.6433 63.3221C94.0334 63.3221 93.5433 63.5151 93.1727 63.9011C92.8022 64.287 92.6169 64.8196 92.6169 65.4989C92.6169 66.0547 92.7443 66.4639 92.9991 66.7263C93.2615 66.9888 93.6591 67.12 94.1917 67.12ZM98.9533 68C98.799 68 98.687 67.9653 98.6176 67.8958C98.5481 67.8263 98.5133 67.7221 98.5133 67.5832V62.7547C98.5133 62.6389 98.5326 62.5579 98.5712 62.5116C98.6098 62.4653 98.6909 62.4421 98.8144 62.4421H99.4744C99.5593 62.4421 99.6211 62.4614 99.6597 62.5C99.6983 62.5309 99.7214 62.5888 99.7291 62.6737L99.7639 63.0905C100.219 62.5425 100.818 62.2684 101.559 62.2684C101.898 62.2684 102.157 62.3263 102.334 62.4421C102.381 62.473 102.408 62.5077 102.415 62.5463C102.431 62.5772 102.431 62.6158 102.415 62.6621L102.207 63.3568C102.184 63.434 102.141 63.4726 102.08 63.4726L101.987 63.4495C101.802 63.3646 101.589 63.3221 101.35 63.3221C100.957 63.3221 100.632 63.434 100.378 63.6579C100.123 63.874 99.9954 64.1712 99.9954 64.5495V67.5832C99.9954 67.7221 99.9607 67.8263 99.8912 67.8958C99.8295 67.9653 99.7176 68 99.5554 68H98.9533ZM103.77 68C103.616 68 103.504 67.9653 103.435 67.8958C103.365 67.8263 103.33 67.7221 103.33 67.5832V62.7547C103.33 62.6389 103.35 62.5579 103.388 62.5116C103.427 62.4653 103.508 62.4421 103.631 62.4421H104.291C104.461 62.4421 104.55 62.5193 104.558 62.6737L104.581 63.1368C105.106 62.5579 105.858 62.2684 106.839 62.2684C107.464 62.2684 107.966 62.4382 108.344 62.7779C108.73 63.1098 108.923 63.6116 108.923 64.2832V67.5832C108.923 67.7221 108.888 67.8263 108.819 67.8958C108.757 67.9653 108.649 68 108.495 68H107.881C107.727 68 107.615 67.9653 107.545 67.8958C107.476 67.8263 107.441 67.7221 107.441 67.5832V64.3758C107.441 63.9975 107.352 63.7312 107.175 63.5768C107.005 63.4147 106.727 63.3337 106.341 63.3337C105.932 63.3337 105.573 63.4456 105.264 63.6695C104.963 63.8856 104.812 64.1674 104.812 64.5147V67.5832C104.812 67.7221 104.778 67.8263 104.708 67.8958C104.647 67.9653 104.535 68 104.372 68H103.77ZM110.807 61.4811C110.622 61.4811 110.479 61.427 110.379 61.3189C110.278 61.2109 110.228 61.0796 110.228 60.9253V60.6821C110.228 60.5277 110.278 60.3965 110.379 60.2884C110.479 60.1804 110.622 60.1263 110.807 60.1263H111.305C111.49 60.1263 111.633 60.1804 111.733 60.2884C111.841 60.3965 111.895 60.5277 111.895 60.6821V60.9253C111.895 61.0796 111.841 61.2109 111.733 61.3189C111.633 61.427 111.49 61.4811 111.305 61.4811H110.807ZM110.761 68C110.606 68 110.494 67.9653 110.425 67.8958C110.355 67.8263 110.321 67.7221 110.321 67.5832V62.8705C110.321 62.7239 110.355 62.6158 110.425 62.5463C110.494 62.4768 110.606 62.4421 110.761 62.4421H111.363C111.517 62.4421 111.629 62.4768 111.699 62.5463C111.768 62.6158 111.803 62.7239 111.803 62.8705V67.5832C111.803 67.7221 111.768 67.8263 111.699 67.8958C111.637 67.9653 111.525 68 111.363 68H110.761ZM113.698 68C113.544 68 113.432 67.9653 113.363 67.8958C113.293 67.8263 113.258 67.7221 113.258 67.5832V62.7547C113.258 62.6389 113.278 62.5579 113.316 62.5116C113.355 62.4653 113.436 62.4421 113.559 62.4421H114.219C114.389 62.4421 114.478 62.5193 114.486 62.6737L114.509 63.1368C115.034 62.5579 115.786 62.2684 116.767 62.2684C117.392 62.2684 117.894 62.4382 118.272 62.7779C118.658 63.1098 118.851 63.6116 118.851 64.2832V67.5832C118.851 67.7221 118.816 67.8263 118.747 67.8958C118.685 67.9653 118.577 68 118.423 68H117.809C117.655 68 117.543 67.9653 117.473 67.8958C117.404 67.8263 117.369 67.7221 117.369 67.5832V64.3758C117.369 63.9975 117.28 63.7312 117.103 63.5768C116.933 63.4147 116.655 63.3337 116.269 63.3337C115.86 63.3337 115.501 63.4456 115.192 63.6695C114.891 63.8856 114.741 64.1674 114.741 64.5147V67.5832C114.741 67.7221 114.706 67.8263 114.636 67.8958C114.575 67.9653 114.463 68 114.301 68H113.698ZM123.109 69.9684C122.661 69.9684 122.225 69.926 121.8 69.8411C121.376 69.7561 121.051 69.6442 120.828 69.5053C120.704 69.4358 120.673 69.3509 120.735 69.2505L121.071 68.6832C121.117 68.606 121.163 68.5674 121.21 68.5674C121.241 68.5674 121.279 68.5789 121.326 68.6021C121.75 68.8182 122.302 68.9263 122.981 68.9263C123.498 68.9263 123.877 68.8028 124.116 68.5558C124.355 68.3088 124.475 67.8919 124.475 67.3053C124.259 67.5368 124.004 67.7105 123.711 67.8263C123.425 67.9344 123.078 67.9884 122.669 67.9884C121.804 67.9884 121.129 67.753 120.642 67.2821C120.164 66.8112 119.924 66.1474 119.924 65.2905C119.924 64.3179 120.21 63.573 120.781 63.0558C121.36 62.5309 122.194 62.2684 123.282 62.2684C123.784 62.2684 124.274 62.3379 124.753 62.4768C125.239 62.6158 125.633 62.7895 125.934 62.9979V66.9695C125.934 67.9035 125.706 68.6368 125.251 69.1695C124.795 69.7021 124.081 69.9684 123.109 69.9684ZM123.016 66.9C123.448 66.9 123.8 66.7881 124.07 66.5642C124.34 66.3326 124.475 66.0161 124.475 65.6147V63.5537C124.328 63.4842 124.143 63.4302 123.919 63.3916C123.695 63.353 123.46 63.3337 123.213 63.3337C121.993 63.3337 121.383 63.9551 121.383 65.1979C121.383 65.7691 121.518 66.1975 121.789 66.4832C122.059 66.7611 122.468 66.9 123.016 66.9ZM132.243 68C132.088 68 131.976 67.9653 131.907 67.8958C131.845 67.8263 131.814 67.7221 131.814 67.5832V60.5547C131.814 60.4081 131.845 60.3 131.907 60.2305C131.976 60.1611 132.088 60.1263 132.243 60.1263H132.856C133.011 60.1263 133.123 60.1611 133.192 60.2305C133.262 60.3 133.296 60.4081 133.296 60.5547V63.4726H137.094V60.5547C137.094 60.4081 137.129 60.3 137.198 60.2305C137.268 60.1611 137.38 60.1263 137.534 60.1263H138.136C138.291 60.1263 138.403 60.1611 138.472 60.2305C138.542 60.3 138.576 60.4081 138.576 60.5547V67.5832C138.576 67.7221 138.542 67.8263 138.472 67.8958C138.41 67.9653 138.298 68 138.136 68H137.534C137.38 68 137.268 67.9653 137.198 67.8958C137.129 67.8263 137.094 67.7221 137.094 67.5832V64.5958H133.296V67.5832C133.296 67.7221 133.262 67.8263 133.192 67.8958C133.13 67.9653 133.018 68 132.856 68H132.243ZM141.994 68.1737C141.361 68.1737 140.851 68 140.465 67.6526C140.079 67.2975 139.886 66.7726 139.886 66.0779V62.8705C139.886 62.7239 139.917 62.6158 139.979 62.5463C140.048 62.4768 140.16 62.4421 140.315 62.4421H140.928C141.083 62.4421 141.195 62.4768 141.264 62.5463C141.334 62.6158 141.368 62.7239 141.368 62.8705V66.0432C141.368 66.4137 141.465 66.6877 141.658 66.8653C141.851 67.0351 142.137 67.12 142.515 67.12C142.916 67.12 143.252 67.0081 143.522 66.7842C143.792 66.5604 143.927 66.2709 143.927 65.9158V62.8705C143.927 62.7239 143.962 62.6158 144.032 62.5463C144.101 62.4768 144.213 62.4421 144.367 62.4421H144.97C145.124 62.4421 145.236 62.4768 145.305 62.5463C145.375 62.6158 145.41 62.7239 145.41 62.8705V67.6874C145.41 67.8109 145.39 67.8958 145.352 67.9421C145.313 67.9807 145.232 68 145.108 68H144.46C144.375 68 144.313 67.9846 144.275 67.9537C144.236 67.9151 144.213 67.8572 144.205 67.78L144.159 67.2937C143.634 67.8804 142.912 68.1737 141.994 68.1737ZM149.507 68.1737C148.982 68.1737 148.468 68.1042 147.967 67.9653C147.465 67.8186 147.067 67.6372 146.774 67.4211V60.5547C146.774 60.4081 146.805 60.3 146.867 60.2305C146.936 60.1611 147.048 60.1263 147.202 60.1263H147.793C147.947 60.1263 148.059 60.1611 148.129 60.2305C148.198 60.3 148.233 60.4081 148.233 60.5547V62.8126C148.434 62.6351 148.696 62.5 149.02 62.4074C149.345 62.3147 149.692 62.2684 150.062 62.2684C150.935 62.2684 151.606 62.5077 152.077 62.9863C152.548 63.4649 152.784 64.1365 152.784 65.0011C152.784 66.0046 152.506 66.7842 151.95 67.34C151.402 67.8958 150.587 68.1737 149.507 68.1737ZM149.437 67.12C150.078 67.12 150.549 66.9502 150.85 66.6105C151.159 66.2632 151.313 65.7382 151.313 65.0358C151.313 64.4491 151.189 64.0207 150.942 63.7505C150.703 63.4726 150.298 63.3337 149.727 63.3337C149.333 63.3337 148.986 63.434 148.685 63.6347C148.384 63.8277 148.233 64.1133 148.233 64.4916V66.8421C148.364 66.927 148.542 66.9965 148.766 67.0505C148.989 67.0968 149.213 67.12 149.437 67.12Z" fill="white"/>
</svg>
